<mxfile host="Electron" agent="Mozilla/5.0 (X11; Linux x86_64) AppleWebKit/537.36 (KHTML, like Gecko) draw.io/26.2.2 Chrome/134.0.6998.178 Electron/35.1.2 Safari/537.36" version="26.2.2">
  <diagram name="Page-1" id="Q-Jz2LdGf_XSwzk5DKA-">
    <mxGraphModel dx="1051" dy="1696" grid="1" gridSize="10" guides="1" tooltips="1" connect="1" arrows="1" fold="1" page="1" pageScale="1" pageWidth="850" pageHeight="1100" math="0" shadow="0">
      <root>
        <mxCell id="0" />
        <mxCell id="1" parent="0" />
        <mxCell id="jLitlZsBFSlxYPEOtN3C-50" value="" style="group" vertex="1" connectable="0" parent="1">
          <mxGeometry x="390" y="120" width="220" height="170" as="geometry" />
        </mxCell>
        <mxCell id="jLitlZsBFSlxYPEOtN3C-6" value="Built-in Functions, type reflection" style="text;whiteSpace=wrap;html=1;" vertex="1" parent="jLitlZsBFSlxYPEOtN3C-50">
          <mxGeometry x="10" y="10" width="200" height="30" as="geometry" />
        </mxCell>
        <mxCell id="jLitlZsBFSlxYPEOtN3C-7" value="Built-in Constants" style="text;whiteSpace=wrap;html=1;" vertex="1" parent="jLitlZsBFSlxYPEOtN3C-50">
          <mxGeometry x="10" y="48" width="120" height="30" as="geometry" />
        </mxCell>
        <mxCell id="jLitlZsBFSlxYPEOtN3C-13" value="Built-in Exceptions" style="text;whiteSpace=wrap;html=1;" vertex="1" parent="jLitlZsBFSlxYPEOtN3C-50">
          <mxGeometry x="10" y="82" width="130" height="40" as="geometry" />
        </mxCell>
        <mxCell id="jLitlZsBFSlxYPEOtN3C-26" value="Concurrent Execution" style="text;whiteSpace=wrap;html=1;" vertex="1" parent="jLitlZsBFSlxYPEOtN3C-50">
          <mxGeometry x="10" y="120" width="150" height="40" as="geometry" />
        </mxCell>
        <mxCell id="jLitlZsBFSlxYPEOtN3C-49" value="" style="rounded=1;whiteSpace=wrap;html=1;fillColor=none;" vertex="1" parent="jLitlZsBFSlxYPEOtN3C-50">
          <mxGeometry width="220" height="170" as="geometry" />
        </mxCell>
        <mxCell id="jLitlZsBFSlxYPEOtN3C-53" value="" style="group" vertex="1" connectable="0" parent="1">
          <mxGeometry x="390" y="320" width="240" height="180" as="geometry" />
        </mxCell>
        <mxCell id="jLitlZsBFSlxYPEOtN3C-14" value="Text Processing Services" style="text;whiteSpace=wrap;html=1;" vertex="1" parent="jLitlZsBFSlxYPEOtN3C-53">
          <mxGeometry x="10" y="10" width="170" height="40" as="geometry" />
        </mxCell>
        <mxCell id="jLitlZsBFSlxYPEOtN3C-15" value="Binary Data Services" style="text;whiteSpace=wrap;html=1;" vertex="1" parent="jLitlZsBFSlxYPEOtN3C-53">
          <mxGeometry x="10" y="53" width="150" height="40" as="geometry" />
        </mxCell>
        <mxCell id="jLitlZsBFSlxYPEOtN3C-16" value="Data Types and algorithms" style="text;whiteSpace=wrap;html=1;" vertex="1" parent="jLitlZsBFSlxYPEOtN3C-53">
          <mxGeometry x="10" y="97" width="180" height="40" as="geometry" />
        </mxCell>
        <mxCell id="jLitlZsBFSlxYPEOtN3C-17" value="Numeric and Mathematical Modules" style="text;whiteSpace=wrap;html=1;" vertex="1" parent="jLitlZsBFSlxYPEOtN3C-53">
          <mxGeometry x="10" y="140" width="230" height="40" as="geometry" />
        </mxCell>
        <mxCell id="jLitlZsBFSlxYPEOtN3C-52" value="" style="rounded=1;whiteSpace=wrap;html=1;fillColor=none;" vertex="1" parent="jLitlZsBFSlxYPEOtN3C-53">
          <mxGeometry width="240" height="180" as="geometry" />
        </mxCell>
        <mxCell id="jLitlZsBFSlxYPEOtN3C-58" value="" style="group" vertex="1" connectable="0" parent="1">
          <mxGeometry x="390" y="520" width="275" height="180" as="geometry" />
        </mxCell>
        <mxCell id="jLitlZsBFSlxYPEOtN3C-27" value="Networking and Interprocess Communication" style="text;whiteSpace=wrap;html=1;" vertex="1" parent="jLitlZsBFSlxYPEOtN3C-58">
          <mxGeometry x="7.5" y="120" width="255" height="40" as="geometry" />
        </mxCell>
        <mxCell id="jLitlZsBFSlxYPEOtN3C-32" value="Internationalization" style="text;whiteSpace=wrap;html=1;" vertex="1" parent="jLitlZsBFSlxYPEOtN3C-58">
          <mxGeometry x="7.5" y="20" width="140" height="40" as="geometry" />
        </mxCell>
        <mxCell id="jLitlZsBFSlxYPEOtN3C-54" value="" style="rounded=1;whiteSpace=wrap;html=1;fillColor=none;" vertex="1" parent="jLitlZsBFSlxYPEOtN3C-58">
          <mxGeometry width="275" height="180" as="geometry" />
        </mxCell>
        <mxCell id="jLitlZsBFSlxYPEOtN3C-55" value="&lt;span style=&quot;color: rgb(255, 255, 255); font-family: Helvetica; font-size: 12px; font-style: normal; font-variant-ligatures: normal; font-variant-caps: normal; font-weight: 400; letter-spacing: normal; orphans: 2; text-align: left; text-indent: 0px; text-transform: none; widows: 2; word-spacing: 0px; -webkit-text-stroke-width: 0px; white-space: normal; background-color: rgb(27, 29, 30); text-decoration-thickness: initial; text-decoration-style: initial; text-decoration-color: initial; display: inline !important; float: none;&quot;&gt;File and Directory Access&lt;/span&gt;" style="text;whiteSpace=wrap;html=1;" vertex="1" parent="jLitlZsBFSlxYPEOtN3C-58">
          <mxGeometry x="7.5" y="53" width="170" height="40" as="geometry" />
        </mxCell>
        <mxCell id="jLitlZsBFSlxYPEOtN3C-56" value="&lt;span style=&quot;color: rgb(255, 255, 255); font-family: Helvetica; font-size: 12px; font-style: normal; font-variant-ligatures: normal; font-variant-caps: normal; font-weight: 400; letter-spacing: normal; orphans: 2; text-align: left; text-indent: 0px; text-transform: none; widows: 2; word-spacing: 0px; -webkit-text-stroke-width: 0px; white-space: normal; background-color: rgb(27, 29, 30); text-decoration-thickness: initial; text-decoration-style: initial; text-decoration-color: initial; display: inline !important; float: none;&quot;&gt;Generic Operating System Services&lt;/span&gt;" style="text;whiteSpace=wrap;html=1;" vertex="1" parent="jLitlZsBFSlxYPEOtN3C-58">
          <mxGeometry x="7.5" y="87" width="230" height="40" as="geometry" />
        </mxCell>
        <mxCell id="jLitlZsBFSlxYPEOtN3C-63" value="" style="group" vertex="1" connectable="0" parent="1">
          <mxGeometry x="725" y="80" width="215" height="170" as="geometry" />
        </mxCell>
        <mxCell id="jLitlZsBFSlxYPEOtN3C-62" value="" style="rounded=1;whiteSpace=wrap;html=1;fillColor=none;flipV=1;" vertex="1" parent="jLitlZsBFSlxYPEOtN3C-63">
          <mxGeometry width="215" height="170" as="geometry" />
        </mxCell>
        <mxCell id="jLitlZsBFSlxYPEOtN3C-8" value="Built-in Types - math" style="text;whiteSpace=wrap;html=1;flipV=1;" vertex="1" parent="jLitlZsBFSlxYPEOtN3C-63">
          <mxGeometry x="20" width="130" height="30" as="geometry" />
        </mxCell>
        <mxCell id="jLitlZsBFSlxYPEOtN3C-9" value="Built-in Types - string" style="text;whiteSpace=wrap;html=1;flipV=1;" vertex="1" parent="jLitlZsBFSlxYPEOtN3C-63">
          <mxGeometry x="20" y="34" width="140" height="30" as="geometry" />
        </mxCell>
        <mxCell id="jLitlZsBFSlxYPEOtN3C-10" value="Built-in Types - array" style="text;whiteSpace=wrap;html=1;flipV=1;" vertex="1" parent="jLitlZsBFSlxYPEOtN3C-63">
          <mxGeometry x="20" y="68" width="130" height="30" as="geometry" />
        </mxCell>
        <mxCell id="jLitlZsBFSlxYPEOtN3C-11" value="Built-in Types - map" style="text;whiteSpace=wrap;html=1;flipV=1;" vertex="1" parent="jLitlZsBFSlxYPEOtN3C-63">
          <mxGeometry x="20" y="101" width="130" height="30" as="geometry" />
        </mxCell>
        <mxCell id="jLitlZsBFSlxYPEOtN3C-59" value="&lt;span style=&quot;color: rgb(255, 255, 255); font-family: Helvetica; font-size: 12px; font-style: normal; font-variant-ligatures: normal; font-variant-caps: normal; font-weight: 400; letter-spacing: normal; orphans: 2; text-align: left; text-indent: 0px; text-transform: none; widows: 2; word-spacing: 0px; -webkit-text-stroke-width: 0px; white-space: normal; background-color: rgb(27, 29, 30); text-decoration-thickness: initial; text-decoration-style: initial; text-decoration-color: initial; display: inline !important; float: none;&quot;&gt;Built-in Types - binary sequences&lt;/span&gt;" style="text;whiteSpace=wrap;html=1;flipV=1;" vertex="1" parent="jLitlZsBFSlxYPEOtN3C-63">
          <mxGeometry x="20" y="130" width="185" height="40" as="geometry" />
        </mxCell>
        <mxCell id="jLitlZsBFSlxYPEOtN3C-72" value="" style="group" vertex="1" connectable="0" parent="1">
          <mxGeometry x="1030" y="230" width="230" height="150" as="geometry" />
        </mxCell>
        <mxCell id="jLitlZsBFSlxYPEOtN3C-70" value="" style="rounded=1;whiteSpace=wrap;html=1;fillColor=none;" vertex="1" parent="jLitlZsBFSlxYPEOtN3C-72">
          <mxGeometry width="230" height="150" as="geometry" />
        </mxCell>
        <mxCell id="jLitlZsBFSlxYPEOtN3C-20" value="Data Persistence" style="text;whiteSpace=wrap;html=1;" vertex="1" parent="jLitlZsBFSlxYPEOtN3C-72">
          <mxGeometry x="15" y="10" width="130" height="40" as="geometry" />
        </mxCell>
        <mxCell id="jLitlZsBFSlxYPEOtN3C-22" value="File Formats" style="text;whiteSpace=wrap;html=1;" vertex="1" parent="jLitlZsBFSlxYPEOtN3C-72">
          <mxGeometry x="15" y="77" width="100" height="40" as="geometry" />
        </mxCell>
        <mxCell id="jLitlZsBFSlxYPEOtN3C-31" value="Multimedia Services" style="text;whiteSpace=wrap;html=1;" vertex="1" parent="jLitlZsBFSlxYPEOtN3C-72">
          <mxGeometry x="15" y="110" width="140" height="40" as="geometry" />
        </mxCell>
        <mxCell id="jLitlZsBFSlxYPEOtN3C-71" value="&lt;table style=&quot;forced-color-adjust: none; box-shadow: none !important; color: rgb(255, 255, 255); font-family: Helvetica; font-size: 12px; font-style: normal; font-variant-ligatures: normal; font-variant-caps: normal; font-weight: 400; letter-spacing: normal; orphans: 2; text-align: left; text-transform: none; widows: 2; word-spacing: 0px; -webkit-text-stroke-width: 0px; white-space: normal; background-color: rgb(27, 29, 30); text-decoration-thickness: initial; text-decoration-style: initial; text-decoration-color: initial;&quot;&gt;&lt;tbody style=&quot;forced-color-adjust: none; box-shadow: none !important;&quot;&gt;&lt;tr style=&quot;forced-color-adjust: none; box-shadow: none !important;&quot;&gt;&lt;td style=&quot;forced-color-adjust: none; box-shadow: none !important; text-align: left;&quot;&gt;Data Compression and Archiving&lt;/td&gt;&lt;td style=&quot;forced-color-adjust: none; box-shadow: none !important; text-align: left;&quot;&gt;&lt;/td&gt;&lt;/tr&gt;&lt;/tbody&gt;&lt;/table&gt;&lt;br class=&quot;Apple-interchange-newline&quot;&gt;" style="text;whiteSpace=wrap;html=1;" vertex="1" parent="jLitlZsBFSlxYPEOtN3C-72">
          <mxGeometry x="15" y="40" width="210" height="50" as="geometry" />
        </mxCell>
        <mxCell id="jLitlZsBFSlxYPEOtN3C-73" value="" style="group" vertex="1" connectable="0" parent="1">
          <mxGeometry x="1050" y="430" width="250" height="120" as="geometry" />
        </mxCell>
        <mxCell id="jLitlZsBFSlxYPEOtN3C-74" value="" style="rounded=1;whiteSpace=wrap;html=1;fillColor=none;" vertex="1" parent="jLitlZsBFSlxYPEOtN3C-73">
          <mxGeometry x="-20" y="-10" width="270" height="130" as="geometry" />
        </mxCell>
        <mxCell id="jLitlZsBFSlxYPEOtN3C-28" value="Internet Data Handling" style="text;whiteSpace=wrap;html=1;" vertex="1" parent="jLitlZsBFSlxYPEOtN3C-73">
          <mxGeometry width="160" height="40" as="geometry" />
        </mxCell>
        <mxCell id="jLitlZsBFSlxYPEOtN3C-29" value="Structured Markup Processing Tools" style="text;whiteSpace=wrap;html=1;" vertex="1" parent="jLitlZsBFSlxYPEOtN3C-73">
          <mxGeometry y="35" width="230" height="40" as="geometry" />
        </mxCell>
        <mxCell id="jLitlZsBFSlxYPEOtN3C-30" value="Internet Protocols and Support" style="text;whiteSpace=wrap;html=1;" vertex="1" parent="jLitlZsBFSlxYPEOtN3C-73">
          <mxGeometry y="70" width="200" height="40" as="geometry" />
        </mxCell>
        <mxCell id="jLitlZsBFSlxYPEOtN3C-79" value="" style="group" vertex="1" connectable="0" parent="1">
          <mxGeometry x="720" y="370" width="250" height="180" as="geometry" />
        </mxCell>
        <mxCell id="jLitlZsBFSlxYPEOtN3C-78" value="" style="rounded=1;whiteSpace=wrap;html=1;fillColor=none;" vertex="1" parent="jLitlZsBFSlxYPEOtN3C-79">
          <mxGeometry width="225" height="180" as="geometry" />
        </mxCell>
        <mxCell id="jLitlZsBFSlxYPEOtN3C-38" value="Runtime Services" style="text;whiteSpace=wrap;html=1;" vertex="1" parent="jLitlZsBFSlxYPEOtN3C-79">
          <mxGeometry x="10" y="20" width="130" height="40" as="geometry" />
        </mxCell>
        <mxCell id="jLitlZsBFSlxYPEOtN3C-39" value="Custom Interpreters" style="text;whiteSpace=wrap;html=1;" vertex="1" parent="jLitlZsBFSlxYPEOtN3C-79">
          <mxGeometry x="10" y="60" width="140" height="40" as="geometry" />
        </mxCell>
        <mxCell id="jLitlZsBFSlxYPEOtN3C-40" value="Importing Modules" style="text;whiteSpace=wrap;html=1;" vertex="1" parent="jLitlZsBFSlxYPEOtN3C-79">
          <mxGeometry x="10" y="100" width="130" height="40" as="geometry" />
        </mxCell>
        <mxCell id="jLitlZsBFSlxYPEOtN3C-44" value="Modules command-line interface (CLI)" style="text;whiteSpace=wrap;html=1;" vertex="1" parent="jLitlZsBFSlxYPEOtN3C-79">
          <mxGeometry x="10" y="140" width="240" height="40" as="geometry" />
        </mxCell>
        <mxCell id="jLitlZsBFSlxYPEOtN3C-81" value="" style="group" vertex="1" connectable="0" parent="1">
          <mxGeometry x="725" y="580" width="185" height="150" as="geometry" />
        </mxCell>
        <mxCell id="jLitlZsBFSlxYPEOtN3C-80" value="" style="rounded=1;whiteSpace=wrap;html=1;fillColor=none;" vertex="1" parent="jLitlZsBFSlxYPEOtN3C-81">
          <mxGeometry width="180" height="140" as="geometry" />
        </mxCell>
        <mxCell id="jLitlZsBFSlxYPEOtN3C-33" value="Program Frameworks" style="text;whiteSpace=wrap;html=1;" vertex="1" parent="jLitlZsBFSlxYPEOtN3C-81">
          <mxGeometry x="15" y="10" width="150" height="40" as="geometry" />
        </mxCell>
        <mxCell id="jLitlZsBFSlxYPEOtN3C-35" value="Development Tools" style="text;whiteSpace=wrap;html=1;" vertex="1" parent="jLitlZsBFSlxYPEOtN3C-81">
          <mxGeometry x="15" y="43" width="140" height="40" as="geometry" />
        </mxCell>
        <mxCell id="jLitlZsBFSlxYPEOtN3C-36" value="Debugging and Profiling" style="text;whiteSpace=wrap;html=1;" vertex="1" parent="jLitlZsBFSlxYPEOtN3C-81">
          <mxGeometry x="15" y="77" width="170" height="40" as="geometry" />
        </mxCell>
        <mxCell id="jLitlZsBFSlxYPEOtN3C-41" value="Language Services" style="text;whiteSpace=wrap;html=1;" vertex="1" parent="jLitlZsBFSlxYPEOtN3C-81">
          <mxGeometry x="15" y="110" width="140" height="40" as="geometry" />
        </mxCell>
        <mxCell id="jLitlZsBFSlxYPEOtN3C-83" value="" style="group" vertex="1" connectable="0" parent="1">
          <mxGeometry x="390" y="720" width="205" height="100" as="geometry" />
        </mxCell>
        <mxCell id="jLitlZsBFSlxYPEOtN3C-82" value="" style="rounded=1;whiteSpace=wrap;html=1;fillColor=none;" vertex="1" parent="jLitlZsBFSlxYPEOtN3C-83">
          <mxGeometry width="190" height="100" as="geometry" />
        </mxCell>
        <mxCell id="jLitlZsBFSlxYPEOtN3C-42" value="MS Windows Specific Services" style="text;whiteSpace=wrap;html=1;" vertex="1" parent="jLitlZsBFSlxYPEOtN3C-83">
          <mxGeometry x="5" y="20" width="200" height="40" as="geometry" />
        </mxCell>
        <mxCell id="jLitlZsBFSlxYPEOtN3C-43" value="Unix Specific Services" style="text;whiteSpace=wrap;html=1;" vertex="1" parent="jLitlZsBFSlxYPEOtN3C-83">
          <mxGeometry x="5" y="60" width="150" height="40" as="geometry" />
        </mxCell>
        <mxCell id="jLitlZsBFSlxYPEOtN3C-85" value="" style="group" vertex="1" connectable="0" parent="1">
          <mxGeometry x="1037.5" y="90" width="235" height="90" as="geometry" />
        </mxCell>
        <mxCell id="jLitlZsBFSlxYPEOtN3C-84" value="" style="rounded=1;whiteSpace=wrap;html=1;fillColor=none;" vertex="1" parent="jLitlZsBFSlxYPEOtN3C-85">
          <mxGeometry width="230" height="90" as="geometry" />
        </mxCell>
        <mxCell id="jLitlZsBFSlxYPEOtN3C-25" value="Command Line Interface Libraries" style="text;whiteSpace=wrap;html=1;" vertex="1" parent="jLitlZsBFSlxYPEOtN3C-85">
          <mxGeometry x="15" y="10" width="220" height="40" as="geometry" />
        </mxCell>
        <mxCell id="jLitlZsBFSlxYPEOtN3C-34" value="Graphical User Interfaces" style="text;whiteSpace=wrap;html=1;" vertex="1" parent="jLitlZsBFSlxYPEOtN3C-85">
          <mxGeometry x="15" y="50" width="170" height="40" as="geometry" />
        </mxCell>
        <mxCell id="jLitlZsBFSlxYPEOtN3C-86" value="" style="group" vertex="1" connectable="0" parent="1">
          <mxGeometry x="1022.5" y="680" width="265" height="150" as="geometry" />
        </mxCell>
        <mxCell id="jLitlZsBFSlxYPEOtN3C-76" value="" style="rounded=1;whiteSpace=wrap;html=1;fillColor=none;container=0;" vertex="1" parent="jLitlZsBFSlxYPEOtN3C-86">
          <mxGeometry width="265" height="150" as="geometry" />
        </mxCell>
        <mxCell id="jLitlZsBFSlxYPEOtN3C-37" value="Software Packaging and Distribution" style="text;whiteSpace=wrap;html=1;container=0;" vertex="1" parent="jLitlZsBFSlxYPEOtN3C-86">
          <mxGeometry x="15" y="10" width="230" height="40" as="geometry" />
        </mxCell>
        <mxCell id="jLitlZsBFSlxYPEOtN3C-45" value="Superseded Modules" style="text;whiteSpace=wrap;html=1;container=0;" vertex="1" parent="jLitlZsBFSlxYPEOtN3C-86">
          <mxGeometry x="15" y="43" width="150" height="40" as="geometry" />
        </mxCell>
        <mxCell id="jLitlZsBFSlxYPEOtN3C-46" value="Removed Modules" style="text;whiteSpace=wrap;html=1;container=0;" vertex="1" parent="jLitlZsBFSlxYPEOtN3C-86">
          <mxGeometry x="15" y="77" width="140" height="40" as="geometry" />
        </mxCell>
        <mxCell id="jLitlZsBFSlxYPEOtN3C-47" value="Security Considerations" style="text;whiteSpace=wrap;html=1;container=0;" vertex="1" parent="jLitlZsBFSlxYPEOtN3C-86">
          <mxGeometry x="15" y="110" width="160" height="40" as="geometry" />
        </mxCell>
        <mxCell id="jLitlZsBFSlxYPEOtN3C-69" value="" style="group" vertex="1" connectable="0" parent="1">
          <mxGeometry x="1030" y="590" width="185" height="50" as="geometry" />
        </mxCell>
        <mxCell id="jLitlZsBFSlxYPEOtN3C-68" value="" style="rounded=1;whiteSpace=wrap;html=1;fillColor=none;" vertex="1" parent="jLitlZsBFSlxYPEOtN3C-69">
          <mxGeometry width="185" height="50" as="geometry" />
        </mxCell>
        <mxCell id="jLitlZsBFSlxYPEOtN3C-23" value="Cryptographic Services" style="text;whiteSpace=wrap;html=1;" vertex="1" parent="jLitlZsBFSlxYPEOtN3C-69">
          <mxGeometry x="25" y="10" width="150" height="30" as="geometry" />
        </mxCell>
        <mxCell id="jLitlZsBFSlxYPEOtN3C-90" value="" style="group" vertex="1" connectable="0" parent="1">
          <mxGeometry x="720" y="280" width="220" height="60" as="geometry" />
        </mxCell>
        <mxCell id="jLitlZsBFSlxYPEOtN3C-65" value="" style="rounded=1;whiteSpace=wrap;html=1;fillColor=none;container=0;" vertex="1" parent="jLitlZsBFSlxYPEOtN3C-90">
          <mxGeometry width="220" height="60" as="geometry" />
        </mxCell>
        <mxCell id="jLitlZsBFSlxYPEOtN3C-64" value="&lt;table style=&quot;forced-color-adjust: none; box-shadow: none !important; color: rgb(255, 255, 255); font-family: Helvetica; font-size: 12px; font-style: normal; font-variant-ligatures: normal; font-variant-caps: normal; font-weight: 400; letter-spacing: normal; orphans: 2; text-align: left; text-transform: none; widows: 2; word-spacing: 0px; -webkit-text-stroke-width: 0px; white-space: normal; background-color: rgb(27, 29, 30); text-decoration-thickness: initial; text-decoration-style: initial; text-decoration-color: initial;&quot;&gt;&lt;tbody style=&quot;forced-color-adjust: none; box-shadow: none !important;&quot;&gt;&lt;tr style=&quot;forced-color-adjust: none; box-shadow: none !important;&quot;&gt;&lt;td style=&quot;forced-color-adjust: none; box-shadow: none !important; text-align: left;&quot;&gt;Functional Programming Modules&lt;/td&gt;&lt;td style=&quot;forced-color-adjust: none; box-shadow: none !important; text-align: left;&quot;&gt;&lt;/td&gt;&lt;/tr&gt;&lt;/tbody&gt;&lt;/table&gt;&lt;br class=&quot;Apple-interchange-newline&quot;&gt;" style="text;whiteSpace=wrap;html=1;container=0;" vertex="1" parent="jLitlZsBFSlxYPEOtN3C-90">
          <mxGeometry x="5" y="10" width="205" height="30" as="geometry" />
        </mxCell>
      </root>
    </mxGraphModel>
  </diagram>
</mxfile>
